<?xml version="1.0" encoding="UTF-8"?>
<svg xmlns="http://www.w3.org/2000/svg" version="1.1" viewBox="0 0 1000 1000">
  <!-- Generator: Adobe Illustrator 28.6.0, SVG Export Plug-In . SVG Version: 1.2.0 Build 709)  -->
  <g>
    <g id="Camada_1">
      <path d="M260.9,679.7c-30.6-9.8-60-18.3-88.7-28.8-27.3-10-52.9-23.9-75.6-42.1-32.4-25.9-56.5-57.7-63-100-3.5-23-5.1-46.2,5.5-68,4-8.2,8.6-16.5,14.6-23.4,16-18.6,35-33.8,56.4-45.8,33.6-18.8,69.5-32.2,107.3-38.4,27.8-4.5,53.3-3.6,81.5-4.9s19.5,1.1,27.8,2.3,10-.3,13-6.6c21.7-44.8,48.7-86.4,79.9-124.9,34.5-42.5,73.3-80.6,120.3-109.4,32.2-19.7,66.5-35,104.6-39.8,69.8-8.8,136.1,2.2,197.5,36.7,45.6,25.5,79.8,62.6,104.3,108.9,15.9,30.1,27.8,61.8,32,95.3,3.1,24.6,2.1,50,.5,74.9-2.8,43.9-16.7,85-38.4,122.8-12.7,22.1-28.2,43-44.8,62.5-34.6,40.6-78.6,68.8-126.9,90.5-33.8,15.2-69.1,25.7-105.3,33.3-11.1,2.3-22.4,3.4-33.5,5.9-2.5.6-5.9,4.3-6.2,6.8-4.2,46.9-13.5,92.7-29.7,136.8-12.7,34.8-30.3,67.2-57.4,93.1-25.5,24.4-55.9,39-91.9,38-27.8-.7-52.4-11.2-74.1-28.1-31.3-24.3-52.3-56.2-68.6-92-16.5-36.3-26.8-74.4-35.1-113.2-3.1-14.6-4.4-29.5-6.2-42.5ZM428.7,359.3c17.5,9,33.8,17.1,49.8,25.7,36.6,19.7,68.4,45.6,93.1,79,25,33.7,41.3,71.6,48.2,113.2,1,6.2,3.3,7.6,8.9,6.4,33.3-6.7,66.2-15.3,97.3-28.9,30.8-13.5,59.7-30.4,84.2-53.9,25.4-24.4,46.3-52.2,57.9-85.5,7.3-20.9,13.3-42.8,16-64.7,3.7-30.7-1.8-60.8-13.9-89.7-20.8-49.8-54.7-85.7-106.2-103.9-21.9-7.7-44.3-10.9-67.4-13.1-21.8-2.1-42.3.7-62.5,7.5-39.2,13.1-71.8,37.2-100.1,66.2-24.2,24.8-46,52.3-66.8,80-14.8,19.6-26.2,41.7-38.7,61.8ZM360.4,693.1c6.9,40.4,17.1,80.5,37.5,117,7.4,13.2,16.7,25.6,26.9,36.7,12.7,13.8,27.8,15,39.5,5.2,14.1-11.8,25-26.5,31.5-43.3,9.2-24.1,16.5-48.9,23.3-73.8,3.8-13.9,5-28.5,7.3-41.9h-166ZM525.2,595.1c-7.1-35.9-22.1-66.4-47.7-91.5-25.1-24.6-55.1-40.7-87.5-54-17.2,48-28.8,95.3-32.7,144.8,56.7,5.8,112.2,5.9,167.9.8ZM297.1,421.2c-23.6,2.7-44.9,4-65.7,7.9-33.7,6.3-65.1,18.8-92.7,39.8-10.9,8.3-13.2,14.6-9.1,27.8,4.7,15.4,14.9,26.8,27.1,36.2,30.8,23.6,66.8,35.6,104.7,45.8,5.6-53,17.4-104.1,35.7-157.5Z"/>
    </g>
  </g>
</svg>